<svg xmlns="http://www.w3.org/2000/svg" viewBox="0 0 25 40.33"><defs><style>.cls-1{fill:#024e82;}.cls-2{fill:#fff;}</style></defs><title>Venues_and_Hotels_Default</title><g id="Layer_2" data-name="Layer 2"><g id="Default"><path class="cls-1" d="M12.5,36.4C10.68,29,4.51,23,4.2,22.69.1,18.58.51,12.58.51,12.52a12,12,0,1,1,24,0c0,.1.41,6.11-3.69,10.21C20.49,23,14.32,29,12.5,36.4Z"/><path class="cls-2" d="M12.5,1A11.5,11.5,0,0,1,24,12.48v.07c0,.06.38,5.85-3.54,9.77-.29.28-5.67,5.56-7.95,12.3-2.27-6.74-7.66-12-7.94-12.29C.63,18.41,1,12.62,1,12.56v-.08A11.5,11.5,0,0,1,12.5,1m0-1A12.48,12.48,0,0,0,0,12.48S-.46,18.73,3.86,23c0,0,8.64,8.37,8.64,17.29C12.5,31.42,21.14,23,21.14,23,25.46,18.73,25,12.48,25,12.48A12.48,12.48,0,0,0,12.5,0Z"/><path class="cls-2" d="M12.5,5.57l-6,3v11h12v-11Zm-.92,11.58H8.81V14.39h2.77Zm0-4.62H8.81V9.77h2.77Zm4.62,4.62H13.42V14.39h2.77Zm0-4.62H13.42V9.77h2.77Z"/></g></g></svg>